<svg width="143" height="20" viewBox="0 0 143 20" fill="none" xmlns="http://www.w3.org/2000/svg">
<g clip-path="url(#clip0_11_6357)">
<path fill-rule="evenodd" clip-rule="evenodd" d="M15.743 0H0.00460592V3.98693H10.4969L0 16.0504V19.9627H15.743V15.957H5.24614L15.743 4.10831V0Z" fill="#F87E14"/>
<path fill-rule="evenodd" clip-rule="evenodd" d="M24.2289 6.20056C24.2741 5.99659 24.3357 5.79673 24.4131 5.60299C24.5091 5.40531 24.6216 5.21632 24.7494 5.0381C24.9304 4.77615 25.1475 4.5419 25.3942 4.34248C25.6464 4.12822 25.9397 3.96925 26.2555 3.87563C26.6378 3.74727 27.0335 3.66424 27.4346 3.6282C27.8952 3.58618 28.4295 3.56284 29.0743 3.56284H34.1408V0.00074702H27.5958C27.0616 -0.00534701 26.5276 0.0258503 25.9976 0.0941177C25.5652 0.140996 25.1381 0.228518 24.7217 0.355556C24.3499 0.474065 23.9952 0.642041 23.667 0.855089C23.324 1.07657 23.0031 1.33144 22.709 1.61606C20.6916 3.52082 19.6829 6.2846 19.6829 9.84202C19.6573 11.3663 19.8544 12.886 20.2678 14.3518C20.6107 15.5807 21.2073 16.7216 22.0181 17.6992C22.3583 18.1047 22.7501 18.4627 23.1834 18.7636C23.6266 19.0714 24.1168 19.3033 24.6342 19.4499C25.2588 19.6344 25.8985 19.7609 26.5457 19.828C27.3794 19.9074 28.213 19.9494 29.0467 19.9494H34.1132V16.3873H29.2263C28.4521 16.4008 27.679 16.3209 26.9234 16.1492C26.3406 16.0223 25.7959 15.7566 25.3343 15.3742C24.9149 14.9943 24.5979 14.5123 24.4131 13.9737C24.1759 13.1844 24.0306 12.3696 23.9802 11.546H34.1132V7.97927H23.9802C24.0216 7.47974 24.0539 7.34435 24.0861 7.04557C24.1184 6.74678 24.1782 6.42465 24.2289 6.20056Z" fill="#F87E14"/>
<path fill-rule="evenodd" clip-rule="evenodd" d="M133.11 6.2005C133.159 5.98976 133.225 5.7836 133.308 5.58425C133.402 5.3856 133.515 5.19646 133.644 5.01936C133.825 4.75867 134.04 4.52458 134.284 4.32374C134.532 4.11319 134.819 3.95451 135.127 3.85689C135.519 3.73227 135.924 3.65547 136.334 3.62813C136.795 3.58612 137.329 3.56277 137.974 3.56277H143.04V0.000682243H136.481C135.947 -0.00511857 135.413 0.0260776 134.883 0.0940529C134.452 0.141374 134.027 0.228891 133.612 0.355491C133.239 0.474878 132.883 0.64279 132.553 0.855024C132.21 1.07768 131.89 1.33246 131.595 1.616C129.582 3.52076 128.568 6.28453 128.568 9.84195C128.55 11.3674 128.755 12.8872 129.176 14.3518C129.518 15.5803 130.113 16.7213 130.922 17.6991C131.264 18.1048 131.657 18.4627 132.092 18.7635C132.535 19.0713 133.025 19.3032 133.543 19.4498C134.167 19.6343 134.807 19.7609 135.454 19.8279C136.283 19.9073 137.122 19.9493 137.955 19.9493H143.022V16.3872H138.14C137.365 16.401 136.592 16.321 135.837 16.1491C135.262 16.0179 134.726 15.7525 134.271 15.3742C133.853 14.993 133.536 14.5114 133.349 13.9736C133.114 13.1841 132.97 12.3693 132.921 11.546H143.054V7.97921H132.921C132.958 7.47967 132.99 7.34429 133.027 7.0455C133.064 6.74671 133.068 6.42458 133.11 6.2005Z" fill="#F87E14"/>
<path fill-rule="evenodd" clip-rule="evenodd" d="M53.6818 7.84323C53.6094 7.16724 53.494 6.4967 53.3364 5.83576C53.1964 5.2404 53.0164 4.65546 52.7975 4.08506C52.6213 3.61359 52.3926 3.16405 52.1158 2.74519C51.4739 1.79425 50.5637 1.06199 49.5042 0.644353C48.145 0.165058 46.7096 -0.0534206 45.2714 9.52482e-05H38.0493V19.9487H45.2714C45.8333 19.9487 46.3262 19.9487 46.7499 19.9207C47.1208 19.9209 47.4915 19.8991 47.8599 19.8554C48.1731 19.8134 48.4587 19.776 48.7166 19.7246C48.9692 19.6698 49.2172 19.5948 49.4582 19.5006C50.3243 19.1973 51.1006 18.6769 51.7151 17.988C52.3651 17.209 52.837 16.2939 53.0969 15.3082C53.3338 14.4779 53.5078 13.6304 53.6173 12.7732C53.8368 11.1387 53.8585 9.48308 53.6818 7.84323ZM49.4996 12.9179C49.3478 13.6828 49.0573 14.4126 48.6429 15.0701C48.3133 15.525 47.8557 15.8684 47.3302 16.0552C46.6731 16.2932 45.9782 16.4056 45.2806 16.3866H41.9874V3.56219H45.2806C45.8817 3.54335 46.4823 3.61413 47.0631 3.77227C47.5125 3.90839 47.9232 4.15173 48.2606 4.48189C48.8203 5.0954 49.2111 5.84726 49.3937 6.66209C49.6851 7.74497 49.8262 8.86373 49.8128 9.98609C49.8174 10.9722 49.7123 11.9557 49.4996 12.9179Z" fill="#F87E14"/>
<path fill-rule="evenodd" clip-rule="evenodd" d="M104.954 0V13.296L98.045 0H93.1489V19.9486L97.0824 20V6.64799L104.185 19.9486H108.892V0H104.954Z" fill="#F87E14"/>
<path fill-rule="evenodd" clip-rule="evenodd" d="M116.566 5.1774C117.331 4.09742 118.596 3.55898 120.362 3.56209H125.949V1.98311e-07H119.906C119.057 -0.000145108 118.211 0.0795622 117.377 0.238095C116.683 0.352867 116.012 0.578186 115.387 0.905696C114.043 1.62853 113.001 2.81875 112.453 4.2577C111.73 6.08594 111.382 8.0447 111.431 10.014C111.403 11.6029 111.608 13.1872 112.039 14.7152C112.372 15.9273 112.975 17.0455 113.803 17.9832C114.122 18.3368 114.483 18.6503 114.876 18.9169C115.27 19.1682 115.694 19.3674 116.138 19.5098C116.652 19.6691 117.179 19.7785 117.713 19.8366C118.388 19.9096 119.066 19.9454 119.745 19.944H125.949V16.3866H120.495C119.054 16.3866 117.98 16.0831 117.271 15.4902C116.663 14.9142 116.243 14.1631 116.069 13.338C115.768 12.1268 115.628 10.88 115.654 9.63118C115.646 8.72323 115.723 7.81654 115.885 6.92343C115.979 6.29675 116.212 5.69984 116.566 5.1774Z" fill="#F87E14"/>
<path fill-rule="evenodd" clip-rule="evenodd" d="M90.5246 19.888L82.7406 0H78.8071L86.6786 19.9486L90.5246 19.888Z" fill="#823E06"/>
<path fill-rule="evenodd" clip-rule="evenodd" d="M71.0195 19.888L78.8035 0H82.737L74.8655 19.9486L71.0195 19.888Z" fill="#F87E14"/>
<path fill-rule="evenodd" clip-rule="evenodd" d="M74.7997 0L66.9097 19.9486H62.9717L70.8478 0H74.7997Z" fill="#823E06"/>
<path fill-rule="evenodd" clip-rule="evenodd" d="M66.9092 19.9486L59.0377 0H55.0996L62.9803 19.9486H66.9092Z" fill="#F87E14"/>
</g>
<defs>
<clipPath id="clip0_11_6357">
<rect width="143" height="20" fill="white"/>
</clipPath>
</defs>
</svg>